<svg width="12" height="12" viewBox="0 0 12 12" fill="none" xmlns="http://www.w3.org/2000/svg">
<g id="Pin">
<path id="Vector" d="M6.125 3.25C5.75416 3.25 5.39165 3.35997 5.08331 3.56599C4.77496 3.77202 4.53464 4.06486 4.39273 4.40747C4.25081 4.75008 4.21368 5.12708 4.28603 5.49079C4.35837 5.85451 4.53695 6.1886 4.79917 6.45083C5.0614 6.71305 5.39549 6.89163 5.75921 6.96397C6.12292 7.03632 6.49992 6.99919 6.84253 6.85727C7.18514 6.71536 7.47798 6.47504 7.68401 6.16669C7.89003 5.85835 8 5.49584 8 5.125C8 4.62772 7.80246 4.15081 7.45083 3.79917C7.09919 3.44754 6.62228 3.25 6.125 3.25ZM6.125 6.25C5.9025 6.25 5.68499 6.18402 5.49998 6.0604C5.31498 5.93679 5.17078 5.76109 5.08564 5.55552C5.00049 5.34995 4.97821 5.12375 5.02162 4.90552C5.06502 4.68729 5.17217 4.48684 5.3295 4.3295C5.48684 4.17217 5.68729 4.06502 5.90552 4.02162C6.12375 3.97821 6.34995 4.00049 6.55552 4.08564C6.76109 4.17078 6.93679 4.31498 7.0604 4.49998C7.18402 4.68499 7.25 4.9025 7.25 5.125C7.25 5.42337 7.13147 5.70952 6.9205 5.9205C6.70952 6.13147 6.42337 6.25 6.125 6.25ZM6.125 1C5.03136 1.00124 3.98287 1.43624 3.20955 2.20955C2.43624 2.98287 2.00124 4.03136 2 5.125C2 6.59688 2.68016 8.15688 3.96875 9.63672C4.54776 10.3054 5.19943 10.9076 5.91172 11.432C5.97477 11.4762 6.04989 11.4999 6.12687 11.4999C6.20386 11.4999 6.27898 11.4762 6.34203 11.432C7.05301 10.9074 7.70341 10.3052 8.28125 9.63672C9.56797 8.15688 10.25 6.59688 10.25 5.125C10.2488 4.03136 9.81376 2.98287 9.04045 2.20955C8.26713 1.43624 7.21864 1.00124 6.125 1ZM6.125 10.6562C5.35016 10.0469 2.75 7.80859 2.75 5.125C2.75 4.22989 3.10558 3.37145 3.73851 2.73851C4.37145 2.10558 5.22989 1.75 6.125 1.75C7.02011 1.75 7.87855 2.10558 8.51149 2.73851C9.14442 3.37145 9.5 4.22989 9.5 5.125C9.5 7.80766 6.89984 10.0469 6.125 10.6562Z" fill="#283237"/>
</g>
</svg>
